# xmcd
#
# Track frame offsets:
#	177
#	18125
#	40012
#	58912
#	80215
#	101050
#	123007
#	141947
#
# Disc length: 2189 seconds
#
# Revision: 0
# Processed by: cddbd v1.5.2PL0 Copyright (c) Steve Scherf et al.
# Submitted via: EZCDAudioConverter 1.3.4.1
#
DISCID=66088b08
DTITLE=L V Johnson - I Got The Touch
DYEAR=1991
DGENRE=Soul
TTITLE0=I Got The Touch
TTITLE1=Take A Little Time To Know Her
TTITLE2=Are You Serious
TTITLE3=I Don't Want To Lose Your Love
TTITLE4=Nothing To Do With It
TTITLE5=I Am Missing You
TTITLE6=I Just Can't Get Over You
TTITLE7=Stroking Kind (Choking Kind)
EXTD=
EXTT0=
EXTT1=
EXTT2=
EXTT3=
EXTT4=
EXTT5=
EXTT6=
EXTT7=
PLAYORDER=
